<svg width="170" height="170" viewBox="0 0 170 170" fill="none" xmlns="http://www.w3.org/2000/svg">
<path d="M84.9749 169.85C131.906 169.85 169.95 131.828 169.95 84.9247C169.95 38.0221 131.906 0 84.9749 0C38.0446 0 0 38.0221 0 84.9247C0 131.828 38.0446 169.85 84.9749 169.85Z" fill="url(#paint0_linear_1092_98)"/>
<path d="M77.5203 105.085C72.3868 105.085 68.6422 103.365 66.2566 99.8938C63.8709 96.4231 62.6934 91.7756 62.6934 85.9511C62.6934 77.8931 64.7164 70.1369 68.793 62.7129C70.8164 59.0007 73.6246 55.9527 77.2184 53.5684C80.7816 51.1842 84.8582 50.0073 89.4181 50.0073C94.2493 50.0073 101.406 50.8523 110.888 52.5426L115.72 53.478L107.838 87.4297L105 103.516L91.0182 104.029C91.6526 99.7431 92.1053 97.027 92.3771 95.8196C89.5085 99.6825 86.1263 102.399 82.2913 104.029C80.6908 104.723 79.0903 105.085 77.5505 105.085H77.5203ZM89.8105 61.9885C87.153 61.9885 84.7975 63.3465 82.7745 66.0932C78.9094 71.284 76.9768 77.8931 76.9768 85.9511C76.9768 88.3956 77.3692 90.2061 78.1242 91.3533C78.9094 92.5 80.1171 93.0733 81.7477 93.0733C83.3784 93.0733 85.2506 92.2886 87.3344 90.7494C89.3875 89.2105 91.1392 87.6712 92.5282 86.1319L94.6421 83.7179L99.4737 63.4373C94.8536 62.4714 91.6224 61.9583 89.8105 61.9583V61.9885Z" fill="white"/>
<path d="M84.8521 138.976C84.8521 140.515 83.5234 141.693 81.9832 141.541C75.0682 140.848 57.0403 137.558 42.8175 121.593C30.346 107.59 29.7723 92.7113 30.195 86.5245C30.2856 84.955 31.7653 83.8384 33.3054 84.1402L47.498 86.8262C48.3133 86.9773 48.8569 87.7013 48.8569 88.5162C48.7664 91.8663 49.31 100.678 56.8292 109.129C66.16 119.601 77.8161 122.166 82.7081 122.77C84.0368 122.951 85.0029 124.068 85.0029 125.396L84.8521 138.946V138.976Z" fill="white"/>
<defs>
<linearGradient id="paint0_linear_1092_98" x1="0" y1="84.9247" x2="169.95" y2="84.9247" gradientUnits="userSpaceOnUse">
<stop stop-color="#585BA8"/>
<stop offset="1" stop-color="#EF4C72"/>
</linearGradient>
</defs>
</svg>
